# xmcd CD database file
#
# Track frame offsets:
#	150
#	20005
#	36104
#	54942
#	82575
#	100070
#	117197
#	137427
#	159977
#	179214
#
# Disc length: 2785 seconds
#
# Revision: 0
# Processed by: cddbd v1.5.1PL2 Copyright (c) Steve Scherf et al.
# Submitted via: CDex 1.60beta1
#
DISCID=720adf0a
DTITLE=Coen Wolters Band - As The Crow Flies
DYEAR=2006
DGENRE=Blues
TTITLE0=Devil's Train
TTITLE1=The day I died
TTITLE2=Gales
TTITLE3=Dance on the moon
TTITLE4=Holy water
TTITLE5=Hiding
TTITLE6=Don't turn your back on me
TTITLE7=Slow Motion
TTITLE8=Wilder than the wind
TTITLE9=Dancing with shadows
EXTD=YEAR: 2006
EXTT0=
EXTT1=
EXTT2=
EXTT3=
EXTT4=
EXTT5=
EXTT6=
EXTT7=
EXTT8=
EXTT9=
PLAYORDER=
